<svg width="555" height="611" viewBox="0 0 555 611" fill="none" xmlns="http://www.w3.org/2000/svg">
<ellipse cx="277.5" cy="323.5" rx="277.5" ry="287.5" fill="#BAC283"/>
<path fill-rule="evenodd" clip-rule="evenodd" d="M218.193 604.419C153.507 589.829 97.2445 551.867 58.0584 499.501C93.5081 440.767 185.616 438.841 237.874 448.117C250.205 452.352 263.467 454.704 276.659 455.757C289.843 454.704 303.098 452.352 315.422 448.117C368.045 438.771 461.102 440.797 495.929 500.846C457.11 552.093 401.852 589.339 338.383 604.059C316.124 603.367 294.715 602.909 277.653 602.986V603.458C261.123 603.334 240.164 603.754 218.193 604.419Z" fill="#C0786E"/>
<path fill-rule="evenodd" clip-rule="evenodd" d="M122.491 562C166.752 592.938 220.09 611 277.5 611C334.91 611 388.248 592.938 432.509 562H122.491Z" fill="#C0786E"/>
<path fill-rule="evenodd" clip-rule="evenodd" d="M279.971 484.312C325.201 484.312 361.867 467.528 361.867 446.824C361.867 445.857 361.787 444.899 361.63 443.95C344.671 444.094 328.703 445.733 315.341 448.106C303.017 452.342 289.763 454.694 276.578 455.747C263.386 454.694 250.125 452.342 237.793 448.106C226.228 446.054 212.712 444.55 198.29 444.088C198.148 444.992 198.075 445.904 198.075 446.824C198.075 467.528 234.741 484.312 279.971 484.312Z" fill="#EDC765"/>
<path d="M51 414.5C51 405 49.5 374.5 51 322.5C53.5 281.167 66.2 185.5 97 133.5C127.8 81.5 200.833 306.5 233.5 425.5V435C210 438 135.833 431.833 110 425.5V397L97 425.5C81.6667 425 51 422.1 51 414.5Z" fill="#9CA568"/>
<path d="M505.334 414.715C505.334 405.214 506.833 374.71 505.334 322.702C502.836 281.363 490.148 185.682 459.376 133.675C428.604 81.6672 355.637 306.7 323 425.717V435.218C346.479 438.219 420.578 432.051 446.388 425.717V397.213L459.376 425.717C474.695 425.217 505.334 422.317 505.334 414.715Z" fill="#9CA568"/>
<path d="M51 404.5C51 395 49.5 364.5 51 312.5C53.5 271.167 66.2 175.5 97 123.5C127.8 71.5 200.833 296.5 233.5 415.5V425C210 428 135.833 421.833 110 415.5V387L97 415.5C81.6667 415 51 412.1 51 404.5Z" fill="#552927"/>
<path d="M505.334 404.715C505.334 395.214 506.833 364.71 505.334 312.702C502.836 271.363 490.148 175.682 459.376 123.675C428.604 71.6672 355.637 296.7 323 415.717V425.218C346.479 428.219 420.578 422.051 446.388 415.717V387.213L459.376 415.717C474.695 415.217 505.334 412.317 505.334 404.715Z" fill="#552927"/>
<ellipse cx="279.5" cy="209.5" rx="204.5" ry="209.5" fill="#552927"/>
<ellipse cx="279.5" cy="219.5" rx="188.5" ry="199.5" fill="#FAE4CB"/>
<ellipse cx="94" cy="237" rx="51" ry="49" fill="#FAE4CB"/>
<ellipse cx="458" cy="237" rx="51" ry="49" fill="#FAE4CB"/>
<path d="M118 92L157.5 54L195.5 25L254 12.5H281H314.5L355.5 25L390.5 42.5L433.5 84C445.667 94.5 469.7 123.1 468.5 153.5C467 191.5 449.5 253.5 451 233C452.2 216.6 439.833 183.833 433.5 169.5H376.5L355.5 131.5L336.5 169.5H132V131.5C121.6 155.5 110.667 209.167 106.5 233C102.333 226.167 94 207.4 94 187V141L118 92Z" fill="#552927"/>
<path fill-rule="evenodd" clip-rule="evenodd" d="M324 469.149C309.429 472.972 294.188 475 278.5 475C262.812 475 247.571 472.972 233 469.149L233 417H324V469.149Z" fill="#FAE4CB"/>
<path d="M233 414.5V411L234 410L285 417L298 413L324 410.5V415L318 417L308 419L283 422L257.5 420L233 414.5Z" fill="#FAE7CB"/>
<path fill-rule="evenodd" clip-rule="evenodd" d="M233 413L233 436.265C247.571 440.088 262.812 442.116 278.5 442.116C294.188 442.116 309.429 440.088 324 436.265V413.525C309.732 417.179 294.83 419.116 279.5 419.116C263.453 419.116 247.874 416.994 233 413Z" fill="#EFD2AF"/>
<path d="M350.528 192.189L309.831 195.927L310.751 205.952L351.448 202.214C374.253 200.12 389.419 203.466 397.863 206.798C396.072 205.277 391.065 202.49 386.181 199.024C376.72 192.311 357.544 191.544 350.528 192.189Z" fill="#552927"/>
<path d="M203.074 191.394L243.831 194.423L243.084 204.463L202.328 201.434C179.49 199.737 164.384 203.347 156 206.825C157.764 205.274 162.722 202.399 167.545 198.849C176.888 191.972 196.047 190.872 203.074 191.394Z" fill="#552927"/>
<path fill-rule="evenodd" clip-rule="evenodd" d="M366.83 252C361.133 247.028 351.834 243.79 341.33 243.79C330.825 243.79 321.526 247.028 315.83 252C318.887 243.355 329.145 237 341.33 237C353.514 237 363.773 243.355 366.83 252Z" fill="#552927"/>
<path fill-rule="evenodd" clip-rule="evenodd" d="M234.83 252C229.133 247.028 219.834 243.79 209.33 243.79C198.825 243.79 189.526 247.028 183.83 252C186.886 243.355 197.145 237 209.33 237C221.514 237 231.773 243.355 234.83 252Z" fill="#552927"/>
<path fill-rule="evenodd" clip-rule="evenodd" d="M260.829 290C265.86 285.04 272.207 282.081 279.105 282.081C285.641 282.081 291.681 284.737 296.576 289.233C293.889 280.823 286.952 274.834 278.818 274.834C270.439 274.834 263.331 281.189 260.829 290Z" fill="#EFD2AF"/>
<path d="M320.25 313.5C332.168 313.5 342.181 323.607 337.034 334.356V334.356C333.868 340.969 329.227 346.977 323.377 352.037C317.527 357.098 310.582 361.113 302.939 363.851C295.295 366.59 287.103 368 278.829 368C270.556 368 262.364 366.59 254.72 363.851C247.077 361.113 240.132 357.098 234.282 352.037C228.432 346.977 223.791 340.969 220.625 334.356V334.356C215.478 323.607 225.491 313.5 237.409 313.5L278.829 313.5H320.25Z" fill="#AC4B4B"/>
<path fill-rule="evenodd" clip-rule="evenodd" d="M319.394 355.199C314.462 358.79 308.914 361.71 302.939 363.851C295.295 366.59 287.103 368 278.829 368C270.556 368 262.364 366.59 254.72 363.851C247.821 361.379 241.49 357.867 236.02 353.485C241.198 350.012 247.193 347.23 253.73 345.273C260.949 343.112 268.686 342 276.5 342C284.314 342 292.051 343.112 299.27 345.273C306.489 347.434 313.048 350.601 318.573 354.594C318.849 354.794 319.123 354.996 319.394 355.199Z" fill="#A33838"/>
<path fill-rule="evenodd" clip-rule="evenodd" d="M325.498 314.557V321C325.498 327.075 320.573 332 314.498 332H240.498C234.423 332 229.498 327.075 229.498 321V314.557C231.557 313.875 233.782 313.5 236.078 313.5L277.498 313.5H318.918C321.213 313.5 323.438 313.875 325.498 314.557Z" fill="white"/>
<g filter="url(#filter0_f_3_2)">
<ellipse cx="165.5" cy="290.5" rx="50.5" ry="36.5" fill="#E8ABAB" fill-opacity="0.5"/>
</g>
<g filter="url(#filter1_f_3_2)">
<ellipse cx="397.5" cy="288.5" rx="50.5" ry="36.5" fill="#E8ABAB" fill-opacity="0.5"/>
</g>
<defs>
<filter id="filter0_f_3_2" x="65" y="204" width="201" height="173" filterUnits="userSpaceOnUse" color-interpolation-filters="sRGB">
<feFlood flood-opacity="0" result="BackgroundImageFix"/>
<feBlend mode="normal" in="SourceGraphic" in2="BackgroundImageFix" result="shape"/>
<feGaussianBlur stdDeviation="25" result="effect1_foregroundBlur_3_2"/>
</filter>
<filter id="filter1_f_3_2" x="297" y="202" width="201" height="173" filterUnits="userSpaceOnUse" color-interpolation-filters="sRGB">
<feFlood flood-opacity="0" result="BackgroundImageFix"/>
<feBlend mode="normal" in="SourceGraphic" in2="BackgroundImageFix" result="shape"/>
<feGaussianBlur stdDeviation="25" result="effect1_foregroundBlur_3_2"/>
</filter>
</defs>
</svg>
