<svg width="1433" height="1010" viewBox="0 0 1433 1010" fill="none" xmlns="http://www.w3.org/2000/svg">
<rect width="1433" height="1010" fill="white"/>
<ellipse cx="720.5" cy="467.5" rx="277.5" ry="287.5" fill="#BAC283"/>
<path fill-rule="evenodd" clip-rule="evenodd" d="M661.193 748.419C596.507 733.829 540.244 695.867 501.058 643.501C536.508 584.767 628.616 582.841 680.874 592.117C693.205 596.352 706.467 598.704 719.659 599.757C732.843 598.704 746.098 596.352 758.422 592.117C811.045 582.771 904.102 584.797 938.929 644.846C900.11 696.093 844.852 733.339 781.383 748.059C759.124 747.367 737.715 746.909 720.653 746.986V747.458C704.123 747.334 683.164 747.754 661.193 748.419Z" fill="#C0786E"/>
<path fill-rule="evenodd" clip-rule="evenodd" d="M565.491 706C609.752 736.938 663.09 755 720.5 755C777.91 755 831.248 736.938 875.509 706H565.491Z" fill="#C0786E"/>
<path fill-rule="evenodd" clip-rule="evenodd" d="M722.971 628.312C768.201 628.312 804.867 611.528 804.867 590.824C804.867 589.857 804.787 588.899 804.63 587.951C787.671 588.094 771.703 589.733 758.341 592.106C746.017 596.342 732.763 598.694 719.578 599.747C706.386 598.694 693.125 596.342 680.793 592.106C669.228 590.054 655.712 588.55 641.29 588.088C641.148 588.992 641.075 589.904 641.075 590.824C641.075 611.528 677.741 628.312 722.971 628.312Z" fill="#EDC765"/>
<path d="M494 558.5C494 549 492.5 518.5 494 466.5C496.5 425.167 509.2 329.5 540 277.5C570.8 225.5 643.833 450.5 676.5 569.5V579C653 582 578.833 575.833 553 569.5V541L540 569.5C524.667 569 494 566.1 494 558.5Z" fill="#9CA568"/>
<path d="M948.334 558.715C948.334 549.214 949.833 518.71 948.334 466.702C945.836 425.363 933.148 329.682 902.376 277.675C871.604 225.667 798.637 450.7 766 569.717V579.218C789.479 582.219 863.578 576.051 889.388 569.717V541.213L902.376 569.717C917.695 569.217 948.334 566.317 948.334 558.715Z" fill="#9CA568"/>
<path d="M494 548.5C494 539 492.5 508.5 494 456.5C496.5 415.167 509.2 319.5 540 267.5C570.8 215.5 643.833 440.5 676.5 559.5V569C653 572 578.833 565.833 553 559.5V531L540 559.5C524.667 559 494 556.1 494 548.5Z" fill="#552927"/>
<path d="M948.334 548.715C948.334 539.214 949.833 508.71 948.334 456.702C945.836 415.363 933.148 319.682 902.376 267.675C871.604 215.667 798.637 440.7 766 559.717V569.218C789.479 572.219 863.578 566.051 889.388 559.717V531.213L902.376 559.717C917.695 559.217 948.334 556.317 948.334 548.715Z" fill="#552927"/>
<ellipse cx="722.5" cy="353.5" rx="204.5" ry="209.5" fill="#552927"/>
<ellipse cx="722.5" cy="363.5" rx="188.5" ry="199.5" fill="#FAE4CB"/>
<ellipse cx="537" cy="381" rx="51" ry="49" fill="#FAE4CB"/>
<ellipse cx="901" cy="381" rx="51" ry="49" fill="#FAE4CB"/>
<path d="M561 236L600.5 198L638.5 169L697 156.5H724H757.5L798.5 169L833.5 186.5L876.5 228C888.667 238.5 912.7 267.1 911.5 297.5C910 335.5 892.5 397.5 894 377C895.2 360.6 882.833 327.833 876.5 313.5H819.5L798.5 275.5L779.5 313.5H575V275.5C564.6 299.5 553.667 353.167 549.5 377C545.333 370.167 537 351.4 537 331V285L561 236Z" fill="#552927"/>
<path fill-rule="evenodd" clip-rule="evenodd" d="M767 613.149C752.429 616.972 737.188 619 721.5 619C705.812 619 690.571 616.972 676 613.149L676 561H767V613.149Z" fill="#FAE4CB"/>
<path d="M676 558.5V555L677 554L728 561L741 557L767 554.5V559L761 561L751 563L726 566L700.5 564L676 558.5Z" fill="#FAE7CB"/>
<path fill-rule="evenodd" clip-rule="evenodd" d="M676 557L676 580.265C690.571 584.088 705.812 586.116 721.5 586.116C737.188 586.116 752.429 584.088 767 580.265V557.525C752.732 561.179 737.83 563.116 722.5 563.116C706.453 563.116 690.874 560.994 676 557Z" fill="#EFD2AF"/>
<path d="M793.528 336.189L752.831 339.927L753.751 349.952L794.448 346.214C817.253 344.12 832.419 347.466 840.863 350.798C839.072 349.277 834.065 346.49 829.181 343.024C819.72 336.311 800.544 335.544 793.528 336.189Z" fill="#552927"/>
<path d="M646.074 335.394L686.831 338.423L686.084 348.463L645.328 345.434C622.49 343.737 607.384 347.347 599 350.825C600.764 349.274 605.722 346.399 610.545 342.849C619.888 335.972 639.047 334.872 646.074 335.394Z" fill="#552927"/>
<path fill-rule="evenodd" clip-rule="evenodd" d="M809.83 396C804.133 391.028 794.834 387.79 784.33 387.79C773.825 387.79 764.526 391.028 758.83 396C761.887 387.355 772.145 381 784.33 381C796.514 381 806.773 387.355 809.83 396Z" fill="#552927"/>
<path fill-rule="evenodd" clip-rule="evenodd" d="M677.83 396C672.133 391.028 662.834 387.79 652.33 387.79C641.825 387.79 632.526 391.028 626.83 396C629.886 387.355 640.145 381 652.33 381C664.514 381 674.773 387.355 677.83 396Z" fill="#552927"/>
<path fill-rule="evenodd" clip-rule="evenodd" d="M703.829 434C708.86 429.04 715.207 426.081 722.105 426.081C728.641 426.081 734.681 428.737 739.576 433.233C736.889 424.823 729.952 418.834 721.818 418.834C713.439 418.834 706.331 425.189 703.829 434Z" fill="#EFD2AF"/>
<path d="M763.25 457.5C775.168 457.5 785.181 467.607 780.034 478.356C776.868 484.969 772.227 490.977 766.377 496.037C760.527 501.098 753.582 505.113 745.939 507.851C738.295 510.59 730.103 512 721.829 512C713.556 512 705.364 510.59 697.72 507.851C690.077 505.113 683.132 501.098 677.282 496.037C671.432 490.977 666.791 484.969 663.625 478.356C658.478 467.607 668.491 457.5 680.409 457.5L721.829 457.5H763.25Z" fill="#AC4B4B"/>
<path fill-rule="evenodd" clip-rule="evenodd" d="M762.394 499.199C757.462 502.79 751.914 505.71 745.939 507.851C738.295 510.59 730.103 512 721.829 512C713.556 512 705.364 510.59 697.72 507.851C690.821 505.379 684.49 501.867 679.02 497.485C684.198 494.012 690.193 491.23 696.73 489.273C703.949 487.112 711.686 486 719.5 486C727.314 486 735.051 487.112 742.27 489.273C749.489 491.434 756.048 494.601 761.573 498.594C761.849 498.794 762.123 498.996 762.394 499.199Z" fill="#A33838"/>
<path fill-rule="evenodd" clip-rule="evenodd" d="M768.498 458.557V465C768.498 471.075 763.573 476 757.498 476H683.498C677.423 476 672.498 471.075 672.498 465V458.557C674.557 457.875 676.782 457.5 679.078 457.5L720.498 457.5H761.918C764.213 457.5 766.438 457.875 768.498 458.557Z" fill="white"/>
<g filter="url(#filter0_f_0_1)">
<ellipse cx="608.5" cy="434.5" rx="50.5" ry="36.5" fill="#E8ABAB" fill-opacity="0.5"/>
</g>
<g filter="url(#filter1_f_0_1)">
<ellipse cx="840.5" cy="432.5" rx="50.5" ry="36.5" fill="#E8ABAB" fill-opacity="0.5"/>
</g>
<defs>
<filter id="filter0_f_0_1" x="508" y="348" width="201" height="173" filterUnits="userSpaceOnUse" color-interpolation-filters="sRGB">
<feFlood flood-opacity="0" result="BackgroundImageFix"/>
<feBlend mode="normal" in="SourceGraphic" in2="BackgroundImageFix" result="shape"/>
<feGaussianBlur stdDeviation="25" result="effect1_foregroundBlur_0_1"/>
</filter>
<filter id="filter1_f_0_1" x="740" y="346" width="201" height="173" filterUnits="userSpaceOnUse" color-interpolation-filters="sRGB">
<feFlood flood-opacity="0" result="BackgroundImageFix"/>
<feBlend mode="normal" in="SourceGraphic" in2="BackgroundImageFix" result="shape"/>
<feGaussianBlur stdDeviation="25" result="effect1_foregroundBlur_0_1"/>
</filter>
</defs>
</svg>
